<?xml version="1.0" standalone="no"?>
<!DOCTYPE svg PUBLIC "-//W3C//DTD SVG 20010904//EN"
 "http://www.w3.org/TR/2001/REC-SVG-20010904/DTD/svg10.dtd">
<svg version="1.0" xmlns="http://www.w3.org/2000/svg"
 width="1626.000000pt" height="1594.000000pt" viewBox="0 0 1626.000000 1594.000000"
 preserveAspectRatio="xMidYMid meet">

<g transform="translate(0.000000,1594.000000) scale(0.100000,-0.100000)"
fill="#000000" stroke="none">
<path d="M2988 13106 c33 -36 2348 -2351 5145 -5145 l5084 -5081 1407 0 1406
0 0 3218 0 3217 -1727 1726 c-951 949 -1757 1748 -1793 1776 -286 222 -563
317 -1000 343 -104 6 -1713 10 -4374 10 l-4208 0 60 -64z"/>
<path d="M1660 10537 c-690 -1436 -1278 -2674 -1307 -2749 -29 -75 -70 -199
-90 -275 -34 -129 -37 -148 -37 -288 0 -82 5 -184 12 -225 55 -329 192 -632
406 -895 35 -44 653 -667 1372 -1385 719 -718 1289 -1284 1267 -1258 -76 85
-159 204 -206 294 -74 144 -105 256 -139 504 -9 63 -13 1200 -17 4487 l-6
4403 -1255 -2613z"/>
</g>
</svg>
